.
 
http://www.scenetime.com    -  Hottest private tracker on the net. !!!

Sign up will close shortly !!  Join now 

        Seed back for speed


...................................NFO:.................................................








































          
          
              
              
                    
                    
                    
                    

Red.State.2011.VODRiP.XviD-SiC

Poster:
[img]http://img835.imageshack.us/img835/4584/redstate2011movieposter.jpg[/img]

IMDB Link:
http://www.imdb.com/title/tt0873886/

Description:
Set in Middle America, a group of teens receive an online invitation for sex, though they soon encounter fundamentalists with a much more sinister agenda.  

MediaInfo:
General
Complete name                    : Red.State.2011.VODRiP.XviD-SiC.avi
Format                           : AVI
Format/Info                      : Audio Video Interleave
File size                        : 1.46 GiB
Duration                         : 1h 28mn
Overall bit rate                 : 2 362 Kbps
Writing library                  : VirtualDub build 32842/release

Video
ID                               : 0
Format                           : MPEG-4 Visual
Format profile                   : Advanced Simple@L5
Format settings, BVOP            : 1
Format settings, QPel            : No
Format settings, GMC             : No warppoints
Format settings, Matrix          : Default (H.263)
Codec ID                         : XVID
Codec ID/Hint                    : XviD
Duration                         : 1h 28mn
Bit rate                         : 1 905 Kbps
Width                            : 720 pixels
Height                           : 384 pixels
Display aspect ratio             : 1.875
Frame rate                       : 25.000 fps
Color space                      : YUV
Chroma subsampling               : 4:2:0
Bit depth                        : 8 bits
Scan type                        : Progressive
Compression mode                 : Lossy
Bits/(Pixel*Frame)               : 0.276
Stream size                      : 1.18 GiB (81%)
Writing library                  : XviD 1.2.1 (UTC 2008-12-04)

Audio
ID                               : 1
Format                           : AC-3
Format/Info                      : Audio Coding 3
Mode extension                   : CM (complete main)
Codec ID                         : 2000
Duration                         : 1h 28mn
Bit rate mode                    : Constant
Bit rate                         : 448 Kbps
Channel(s)                       : 2 channels
Channel positions                : Front: L R
Sampling rate                    : 44.1 KHz
Bit depth                        : 16 bits
Compression mode                 : Lossy
Delay relative to video          : 69ms
Stream size                      : 283 MiB (19%)
Alignment                        : Split accross interleaves
Interleave, duration             : 40 ms (1.00 video frame)
Interleave, preload duration     : 500 ms

Screenshots:
[img]http://img836.imageshack.us/img836/1566/vlcsnap2011090109h59m48.png[/img]
[img]http://img690.imageshack.us/img690/7200/vlcsnap2011090109h59m53.png[/img]
[img]http://img20.imageshack.us/img20/9112/vlcsnap2011090109h59m59.png[/img]
[img]http://img593.imageshack.us/img593/9512/vlcsnap2011090110h00m32.png[/img]
[img]http://img28.imageshack.us/img28/2172/vlcsnap2011090110h00m41.png[/img]


Note : You know you've been waiting for Kevin Smith's horror movie based on the Westboro Baptist Church for as long as I have. Here's a solid VODRiP to hold you over until October. 

Source: Our own

Enjoy!

Respects to CaptainHomey, Cyanide, CM8, Rx, THC, ELEKTRI4KA, 
Killerhz, PA, YeFsTe, BoxSlots, MrRep and everyone in the struggle...